# xmcd CD database file
#
# Track frame offsets:
#	183
#	14590
#	30165
#	43763
#	57033
#	71910
#	85655
#	98380
#	111005
#	125320
#	143765
#	155740
#	170520
#	183798
#	197538
#	211563
#	225783
#	241303
#	255180
#	269008
#	282318
#
# Disc length: 3913 seconds
#
# Revision: 4
# Processed by: cddbd v1.5.2PL0 Copyright (c) Steve Scherf et al.
# Submitted via: CDex 1.51
#
DISCID=0a0f4715
DTITLE=Various Artist - Ladies Sing Jazz  {1925-1940}
DYEAR=1991
DGENRE=Jazz
TTITLE0=Bessie Smith - St. Louis Blues   [1925]
TTITLE1=Bessie Smith - Careless Love Blues   [1925]
TTITLE2=Bessie Smith - Alexander's Ragtime Band  [1927]
TTITLE3=Bessie Smith - On Revival Day   [1930]
TTITLE4=Billie Holiday - Pennies From Heaven   [1936]
TTITLE5=Billie Holiday - My Man   [1937]
TTITLE6=Billie Holiday - I Can't Get Started   [1938]
TTITLE7=Billie Holiday - Sugar   [1939]
TTITLE8=Billie Holiday - Fine And Mellow   [1939]
TTITLE9=Ella Fitzgerald - Hallelujah !   [1937]
TTITLE10=Ella Fitzgerald - A-Tisket, A-Tasket   [1938]
TTITLE11=Ella Fitzgerald - Undecided   [1938]
TTITLE12=Ella Fitzgerald - F.D.R. Jones   [1938]
TTITLE13=Ella Fitzgerald - 'Tain't What You Do  (It's The Way That Cha Do It)   [1939]
TTITLE14=Ethel Waters - I Can't Give You Anything But Love   [1932]
TTITLE15=Ethel Waters - Don't Blame Me   [1933]
TTITLE16=Ethel Waters - Georgia On My Mind   [1939]
TTITLE17=Adelaïde Hall - The Blues I Love To Sing   [1927]
TTITLE18=Adelaïde Hall - I Must Have That Man   [1933]
TTITLE19=Ivie Anderson - Solitude   [1940]
TTITLE20=Ivie Anderson - Stormy Weather   [1940]
EXTD=YEAR: 1991
EXTT0=
EXTT1=
EXTT2=
EXTT3=
EXTT4=
EXTT5=
EXTT6=
EXTT7=
EXTT8=
EXTT9=
EXTT10=
EXTT11=
EXTT12=
EXTT13=
EXTT14=
EXTT15=
EXTT16=
EXTT17=
EXTT18=
EXTT19=
EXTT20=
PLAYORDER=
